<svg width="74" height="32" viewBox="0 0 74 32" fill="none" xmlns="http://www.w3.org/2000/svg">
<path d="M68 0H31V32H68C70.7614 32 73 29.7614 73 27V5C73 2.23858 70.7614 0 68 0Z" fill="#0F1418"/>
<path d="M31 0H5C2.23858 0 0 2.23858 0 5V27C0 29.7614 2.23858 32 5 32H31V0Z" fill="#A8B9CC"/>
<g clip-path="url(#clip0)">
<path d="M21.023 13.216C21.023 13.216 20.637 9.92296 17.068 9.83096C13.498 9.73996 11.666 12.301 11.666 15.961C11.666 19.621 13.692 22.549 17.164 22.549C20.637 22.549 21.024 18.889 21.024 18.889L27.68 19.255C27.68 19.255 28.071 22.561 25.286 25.083C22.5 27.605 19.082 28.017 16.694 28C14.306 27.982 10.996 28.034 7.794 25.031C4.595 22.03 4.05 19.113 4.05 16.248C4.05 13.382 4.657 9.58696 8.464 6.70796C11.05 4.75396 13.673 4.03296 16.296 4.03296C27.246 4.03196 27.98 13.28 27.98 13.28L21.023 13.216Z" fill="white"/>
</g>
<path d="M56.4603 21.6265C55.6937 21.9976 54.6927 22.1831 53.4574 22.1831C51.846 22.1831 50.5789 21.7095 49.6561 20.7622C48.7332 19.8149 48.2718 18.5527 48.2718 16.9756C48.2718 15.2959 48.7894 13.9336 49.8246 12.8887C50.8646 11.8438 52.2122 11.3213 53.8675 11.3213C54.8929 11.3213 55.7572 11.4507 56.4603 11.7095V13.9873C55.7572 13.5674 54.9564 13.3574 54.0579 13.3574C53.0716 13.3574 52.2757 13.6675 51.6703 14.2876C51.0648 14.9077 50.7621 15.7476 50.7621 16.8071C50.7621 17.8228 51.0477 18.6333 51.619 19.2388C52.1903 19.8394 52.9593 20.1396 53.9261 20.1396C54.849 20.1396 55.6937 19.915 56.4603 19.4658V21.6265Z" fill="white"/>
<path d="M69 0H5C2.23858 0 0 2.23858 0 5V27C0 29.7614 2.23858 32 5 32H69C71.7614 32 74 29.7614 74 27V5C74 2.23858 71.7614 0 69 0Z" fill="url(#paint0_linear)"/>
<defs>
<linearGradient id="paint0_linear" x1="0" y1="0" x2="0" y2="32" gradientUnits="userSpaceOnUse">
<stop stop-color="#BBBBBB" stop-opacity="0.1"/>
<stop offset="1" stop-opacity="0.1"/>
</linearGradient>
<clipPath id="clip0">
<rect width="24" height="24" fill="white" transform="translate(4 4)"/>
</clipPath>
</defs>
</svg>
