<svg width="88" height="32" viewBox="0 0 88 32" fill="none" xmlns="http://www.w3.org/2000/svg">
<path d="M83 0H31V32H83C85.7614 32 88 29.7614 88 27V5C88 2.23858 85.7614 0 83 0Z" fill="#0F1418"/>
<path d="M31 0H5C2.23858 0 0 2.23858 0 5V27C0 29.7614 2.23858 32 5 32H31V0Z" fill="#00599C"/>
<path d="M26.393 9.99999C26.226 9.70999 25.995 9.45699 25.741 9.30999L16.925 4.21999C16.417 3.92699 15.586 3.92699 15.078 4.21999L6.26001 9.30999C5.75201 9.60299 5.33701 10.323 5.33701 10.91V21.09C5.33701 21.384 5.44101 21.71 5.60801 22C5.77501 22.29 6.00601 22.543 6.26001 22.689L15.076 27.78C15.584 28.073 16.415 28.073 16.923 27.78L25.739 22.689C25.993 22.543 26.224 22.29 26.391 22C26.558 21.71 26.662 21.384 26.662 21.09V10.91C26.664 10.616 26.56 10.29 26.393 9.99999V9.99999ZM16 23.109C12.08 23.109 8.89101 19.92 8.89101 16C8.89101 12.08 12.08 8.89099 16 8.89099C17.2471 8.89326 18.4717 9.22243 19.5519 9.84568C20.6321 10.4689 21.5299 11.3645 22.156 12.443L19.08 14.224C18.7671 13.6839 18.318 13.2354 17.7776 12.9232C17.2371 12.611 16.6242 12.4461 16 12.445C14.04 12.445 12.446 14.04 12.446 16C12.446 17.96 14.04 19.555 16 19.555C16.624 19.5537 17.2367 19.3888 17.7772 19.0768C18.3176 18.7648 18.7668 18.3167 19.08 17.777L22.157 19.557C21.5307 20.6355 20.6326 21.5311 19.5523 22.1543C18.472 22.7775 17.2472 23.1067 16 23.109ZM23.109 16.395H22.319V17.185H21.529V16.395H20.739V15.605H21.529V14.815H22.319V15.605H23.109V16.395V16.395ZM26.071 16.395H25.281V17.185H24.491V16.395H23.702V15.605H24.491V14.815H25.281V15.605H26.071V16.395V16.395Z" fill="white"/>
<path d="M52.7648 21.6265C51.9982 21.9976 50.9972 22.1831 49.7619 22.1831C48.1506 22.1831 46.8835 21.7095 45.9606 20.7622C45.0378 19.8149 44.5763 18.5527 44.5763 16.9756C44.5763 15.2959 45.0939 13.9336 46.1291 12.8887C47.1691 11.8438 48.5168 11.3213 50.1721 11.3213C51.1974 11.3213 52.0617 11.4507 52.7648 11.7095V13.9873C52.0617 13.5674 51.2609 13.3574 50.3625 13.3574C49.3762 13.3574 48.5803 13.6675 47.9748 14.2876C47.3693 14.9077 47.0666 15.7476 47.0666 16.8071C47.0666 17.8228 47.3522 18.6333 47.9235 19.2388C48.4948 19.8394 49.2638 20.1396 50.2306 20.1396C51.1535 20.1396 51.9982 19.915 52.7648 19.4658V21.6265ZM62.7153 18.4478H59.8955V21.2676H58.416V18.4478H55.5815V16.9609H58.416V14.1265H59.8955V16.9609H62.7153V18.4478ZM73.5008 18.4478H70.681V21.2676H69.2015V18.4478H66.367V16.9609H69.2015V14.1265H70.681V16.9609H73.5008V18.4478Z" fill="white"/>
<path d="M83 0H5C2.23858 0 0 2.23858 0 5V27C0 29.7614 2.23858 32 5 32H83C85.7614 32 88 29.7614 88 27V5C88 2.23858 85.7614 0 83 0Z" fill="url(#paint0_linear)"/>
<defs>
<linearGradient id="paint0_linear" x1="0" y1="0" x2="0" y2="32" gradientUnits="userSpaceOnUse">
<stop stop-color="#BBBBBB" stop-opacity="0.1"/>
<stop offset="1" stop-opacity="0.1"/>
</linearGradient>
</defs>
</svg>
