<svg width="112" height="32" viewBox="0 0 112 32" fill="none" xmlns="http://www.w3.org/2000/svg">
<path d="M107 0H31V32H107C109.761 32 112 29.7614 112 27V5C112 2.23858 109.761 0 107 0Z" fill="#0F1418"/>
<path d="M5 0.5H30.5V31.5H5C2.51472 31.5 0.5 29.4853 0.5 27V5C0.5 2.51472 2.51472 0.5 5 0.5Z" fill="white" stroke="#1C2125"/>
<g clip-path="url(#clip0_18_1031)">
<path fill-rule="evenodd" clip-rule="evenodd" d="M6.03162 8.98241L6.85883 8.15625L10.9318 14.1562V26.8437L6.03162 22.0063V8.98241Z" fill="#3C92D2"/>
<path fill-rule="evenodd" clip-rule="evenodd" d="M24.9665 9.02856L20.005 4.09375V16.728L24.1557 22.9062C24.1557 22.9062 25 21.9991 25 21.9991L24.9665 9.02856Z" fill="#57A143"/>
<path fill-rule="evenodd" clip-rule="evenodd" d="M10.9313 4.125L23.6722 23.3497L20.1069 26.875L7.35938 7.69288L10.9313 4.125Z" fill="#57A143"/>
</g>
<path d="M54.0651 21H51.6774L47.3488 14.4009C47.0949 14.0151 46.9191 13.7246 46.8215 13.5293H46.7922C46.8312 13.9004 46.8508 14.4668 46.8508 15.2285V21H44.6169V10.4971H47.1657L51.3332 16.8911C51.5236 17.1792 51.6994 17.4648 51.8605 17.748H51.8898C51.8508 17.5039 51.8312 17.0229 51.8312 16.3052V10.4971H54.0651V21ZM63.4224 17.9092H58.5298C58.6079 18.998 59.294 19.5425 60.5879 19.5425C61.4131 19.5425 62.1382 19.3472 62.7632 18.9565V20.6265C62.0698 20.9976 61.169 21.1831 60.0606 21.1831C58.8496 21.1831 57.9097 20.8486 57.2407 20.1797C56.5718 19.5059 56.2373 18.5684 56.2373 17.3672C56.2373 16.1221 56.5987 15.1357 57.3213 14.4082C58.044 13.6807 58.9326 13.3169 59.9873 13.3169C61.0811 13.3169 61.9258 13.6416 62.5215 14.291C63.1221 14.9404 63.4224 15.8218 63.4224 16.9351V17.9092ZM61.2764 16.4883C61.2764 15.4141 60.8418 14.877 59.9727 14.877C59.6016 14.877 59.2793 15.0308 59.0059 15.3384C58.7373 15.646 58.5737 16.0293 58.5152 16.4883H61.2764ZM68.5536 21.1831C67.3036 21.1831 66.3197 20.834 65.6019 20.1357C64.889 19.4326 64.5326 18.4805 64.5326 17.2793C64.5326 16.0391 64.9037 15.0698 65.6458 14.3716C66.388 13.6685 67.3914 13.3169 68.6561 13.3169C69.9012 13.3169 70.8778 13.6685 71.5858 14.3716C72.2938 15.0698 72.6478 15.9951 72.6478 17.1475C72.6478 18.3926 72.2816 19.3765 71.5492 20.0991C70.8216 20.8218 69.8231 21.1831 68.5536 21.1831ZM68.6121 15.0894C68.0653 15.0894 67.6405 15.2773 67.3377 15.6533C67.035 16.0293 66.8836 16.5615 66.8836 17.25C66.8836 18.6904 67.4647 19.4106 68.6268 19.4106C69.7352 19.4106 70.2894 18.6709 70.2894 17.1914C70.2894 15.79 69.7303 15.0894 68.6121 15.0894ZM81.4704 13.5L78.6798 21H76.0431L73.3844 13.5H75.86L77.1637 18.1216C77.3102 18.644 77.3957 19.0884 77.4201 19.4546H77.4494C77.4836 19.1079 77.5739 18.6782 77.7204 18.1655L79.0534 13.5H81.4704ZM83.811 12.3135C83.4204 12.3135 83.1006 12.1987 82.8515 11.9692C82.6025 11.7349 82.478 11.4492 82.478 11.1123C82.478 10.7656 82.6025 10.4824 82.8515 10.2627C83.1006 10.043 83.4204 9.93311 83.811 9.93311C84.2065 9.93311 84.5263 10.043 84.7705 10.2627C85.0195 10.4824 85.144 10.7656 85.144 11.1123C85.144 11.4639 85.0195 11.752 84.7705 11.9766C84.5263 12.2012 84.2065 12.3135 83.811 12.3135ZM84.9536 21H82.6391V13.5H84.9536V21ZM98.991 21H96.6839V16.7227C96.6839 15.6338 96.2835 15.0894 95.4827 15.0894C95.1019 15.0894 94.7918 15.2529 94.5525 15.5801C94.3133 15.9072 94.1937 16.3149 94.1937 16.8032V21H91.8792V16.6787C91.8792 15.6191 91.4861 15.0894 90.7 15.0894C90.3045 15.0894 89.9871 15.2456 89.7479 15.5581C89.5135 15.8706 89.3963 16.2954 89.3963 16.8325V21H87.0818V13.5H89.3963V14.6719H89.4256C89.6648 14.2715 89.9993 13.9468 90.429 13.6978C90.8636 13.4438 91.3372 13.3169 91.8499 13.3169C92.9095 13.3169 93.6346 13.7832 94.0252 14.7158C94.5965 13.7832 95.4363 13.3169 96.5447 13.3169C98.1756 13.3169 98.991 14.3228 98.991 16.3345V21Z" fill="white"/>
<path d="M107 0H5C2.23858 0 0 2.23858 0 5V27C0 29.7614 2.23858 32 5 32H107C109.761 32 112 29.7614 112 27V5C112 2.23858 109.761 0 107 0Z" fill="url(#paint0_linear_18_1031)"/>
<defs>
<linearGradient id="paint0_linear_18_1031" x1="0" y1="0" x2="0" y2="32" gradientUnits="userSpaceOnUse">
<stop stop-color="#BBBBBB" stop-opacity="0.1"/>
<stop offset="1" stop-opacity="0.1"/>
</linearGradient>
<clipPath id="clip0_18_1031">
<rect width="19" height="23" fill="white" transform="translate(6 4)"/>
</clipPath>
</defs>
</svg>
